<svg width="24" height="22" viewBox="0 0 24 22" fill="none" xmlns="http://www.w3.org/2000/svg">
<path d="M15.0497 4.58329C16.0264 4.75798 16.9241 5.19586 17.6278 5.8409C18.3314 6.48594 18.8091 7.30879 18.9997 8.20413M15.0497 0.916626C17.079 1.12328 18.9713 1.95629 20.4159 3.27888C21.8606 4.60148 22.7717 6.33505 22.9997 8.19496M21.9997 15.51V18.26C22.0008 18.5153 21.9438 18.7679 21.8322 19.0019C21.7206 19.2358 21.557 19.4457 21.3518 19.6183C21.1465 19.7909 20.9043 19.9223 20.6404 20.0041C20.3766 20.0859 20.0971 20.1163 19.8197 20.0933C16.7425 19.7868 13.7867 18.8229 11.1897 17.2791C8.77352 15.8717 6.72503 13.9939 5.18969 11.7791C3.49967 9.38773 2.44793 6.66504 2.11969 3.83163C2.0947 3.57814 2.12756 3.32266 2.21619 3.08145C2.30481 2.84024 2.44726 2.61859 2.63445 2.43061C2.82165 2.24263 3.04949 2.09244 3.30348 1.9896C3.55747 1.88677 3.83203 1.83353 4.10969 1.83329H7.10969C7.595 1.82891 8.06548 1.98645 8.43345 2.27653C8.80142 2.56661 9.04177 2.96945 9.10969 3.40996C9.23631 4.29002 9.47114 5.15413 9.80969 5.98579C9.94423 6.31389 9.97335 6.67046 9.8936 7.01327C9.81384 7.35607 9.62855 7.67073 9.35969 7.91996L8.08969 9.08413C9.51324 11.379 11.5861 13.2792 14.0897 14.5841L15.3597 13.42C15.6316 13.1735 15.9748 13.0037 16.3488 12.9305C16.7228 12.8574 17.1118 12.8841 17.4697 13.0075C18.377 13.3178 19.3196 13.5331 20.2797 13.6491C20.7655 13.7119 21.2091 13.9362 21.5262 14.2793C21.8434 14.6224 22.0119 15.0604 21.9997 15.51Z" stroke="white" stroke-width="1.03896" stroke-linecap="round" stroke-linejoin="round"/>
</svg>
